<?xml version="1.0" standalone="no"?><!DOCTYPE svg PUBLIC "-//W3C//DTD SVG 1.1//EN" "http://www.w3.org/Graphics/SVG/1.1/DTD/svg11.dtd"><svg t="1600409937225" class="icon" viewBox="0 0 1024 1024" version="1.1" xmlns="http://www.w3.org/2000/svg" p-id="3523" xmlns:xlink="http://www.w3.org/1999/xlink" width="200" height="200"><defs><style type="text/css"></style></defs><path d="M1024 512c0 281.6-230.4 512-512 512S0 793.6 0 512 230.4 0 512 0s512 230.4 512 512z m-294.4 112.64c-15.36-12.8-33.28-23.04-48.64-35.84-33.28-23.04-64-25.6-89.6 12.8-12.8 20.48-33.28 23.04-53.76 12.8-56.32-25.6-99.84-64-125.44-122.88-10.24-25.6-10.24-48.64 15.36-66.56 12.8-10.24 28.16-20.48 28.16-40.96-2.56-28.16-66.56-117.76-92.16-125.44-10.24-5.12-20.48-2.56-33.28 0-61.44 20.48-87.04 69.12-61.44 128 71.68 176.64 199.68 296.96 373.76 373.76 10.24 5.12 20.48 5.12 25.6 7.68 40.96 0 87.04-38.4 99.84-74.24 10.24-38.4-17.92-51.2-38.4-69.12z" p-id="3524" fill="#1485ee"></path></svg>