<?xml version="1.0" standalone="no"?><!DOCTYPE svg PUBLIC "-//W3C//DTD SVG 1.1//EN" "http://www.w3.org/Graphics/SVG/1.1/DTD/svg11.dtd"><svg class="icon" width="200px" height="200.00px" viewBox="0 0 1024 1024" version="1.1" xmlns="http://www.w3.org/2000/svg"><path d="M512.099 64.5c-247.028 0-447.995 200.977-447.995 448.005S265.072 960.5 512.099 960.5s447.995-200.967 447.995-447.995S759.127 64.5 512.099 64.5z" fill="#34ac37" /><path d="M811.463 502.404L522.2 213.131c-5.359-5.359-14.842-5.359-20.201 0L212.735 502.404c-5.578 5.578-5.578 14.623 0 20.201l289.263 289.263c2.789 2.789 6.445 4.184 10.101 4.184s7.312-1.395 10.101-4.184l289.263-289.263c5.579-5.578 5.579-14.622 0-20.201z m-208.742 55.419h-39.128c-22.123 0-40.057 17.935-40.057 40.059v68.817h-45.47V448.943h-45.223c-10.106 0-15.167-12.217-8.02-19.365l67.958-67.955c4.43-4.428 11.612-4.428 16.043 0l67.958 67.955c7.145 7.147 2.084 19.365-8.021 19.365h-45.224v69.723h79.184v39.157z" fill="#ffffff" /></svg>