<?xml version="1.0" standalone="no"?><!DOCTYPE svg PUBLIC "-//W3C//DTD SVG 1.1//EN" "http://www.w3.org/Graphics/SVG/1.1/DTD/svg11.dtd"><svg t="1573887157345" class="icon" viewBox="0 0 1024 1024" version="1.1" xmlns="http://www.w3.org/2000/svg" p-id="1389" xmlns:xlink="http://www.w3.org/1999/xlink" width="200" height="200"><defs><style type="text/css"></style></defs><path d="M793.6 955.6h-198c-20.3 0-37.3-15.4-39.3-35.6L521 562.3c-2.3-23.3 16-43.4 39.3-43.4h268.6c23.4 0 41.6 20.2 39.3 43.4L832.9 920c-2 20.2-19 35.6-39.3 35.6z" fill="#E8941A" p-id="1390"></path><path d="M694.6 680.1c-59.6 0-108-48.5-108-108 0-7 5.7-12.7 12.7-12.7S612 565 612 572c0 45.6 37.1 82.6 82.6 82.6s82.6-37.1 82.6-82.6c0-7 5.7-12.7 12.7-12.7s12.7 5.7 12.7 12.7c0 59.6-48.5 108.1-108 108.1z" fill="#F4AF14" p-id="1391"></path><path d="M486.4 950.1H156V832.4c0-69.1 56-125.1 125.1-125.1h80.2c69.1 0 125.1 56 125.1 125.1v117.7z" fill="#A0D3F2" p-id="1392"></path><path d="M156 888h330.4v62.1H156z" fill="#62BDDD" p-id="1393"></path><path d="M308.5 149.4h25.4V715h-25.4z" fill="#A0D3F2" p-id="1394"></path><path d="M331.1 200.3h-19.9c-8.4 0-15.2-6.8-15.2-15.2V82c0-8.4 6.8-15.2 15.2-15.2h19.9c8.4 0 15.2 6.8 15.2 15.2v103.1c0 8.4-6.8 15.2-15.2 15.2z" fill="#62BDDD" p-id="1395"></path></svg>