<?xml version="1.0" standalone="no"?><!DOCTYPE svg PUBLIC "-//W3C//DTD SVG 1.1//EN" "http://www.w3.org/Graphics/SVG/1.1/DTD/svg11.dtd"><svg class="icon" width="200px" height="200.00px" viewBox="0 0 1024 1024" version="1.1" xmlns="http://www.w3.org/2000/svg"><path d="M403.226519 446.681236c-2.153231-19.137441-3.32046-39.131873-3.32046-59.723231 0-136.528965 50.307582-247.201753 112.361175-247.201754 62.054618 0 112.361176 110.672789 112.361176 247.201754 0 20.590334-1.166205 40.58579-3.317389 59.723231h38.051674c0.704433-12.01939 1.103748-24.238437 1.103749-36.644856 0-168.726063-66.356984-305.505879-148.19921-305.505879-81.842226 0-148.196138 136.779817-148.196138 305.505879 0 12.406418 0.400339 24.625466 1.102725 36.644856h38.052698z" fill="#f28c13" /><path d="M659.362695 452.034108h-38.051674a5.340586 5.340586 0 0 1-3.991105-1.788727 5.347753 5.347753 0 0 1-1.327979-4.159023c2.1819-19.394436 3.289744-39.284432 3.289743-59.127329 0-133.356968-48.008959-241.849905-107.014446-241.849905-59.006511 0-107.010351 108.492937-107.010351 241.849905 0 19.842898 1.105796 39.732894 3.287696 59.127329a5.344681 5.344681 0 0 1-1.327979 4.159023 5.344681 5.344681 0 0 1-3.990081 1.788727h-38.053722a5.348777 5.348777 0 0 1-5.340586-5.03854c-0.740269-12.615291-1.112963-25.048331-1.112964-36.958164 0-171.407618 68.880861-310.856704 153.546963-310.856704 84.668149 0 153.551058 139.45011 153.551058 310.856704 0 11.909834-0.373718 24.34185-1.113987 36.958164a5.349801 5.349801 0 0 1-5.340586 5.03854z m-32.100852-10.703697H654.296511c0.541635-10.676052 0.816037-21.18214 0.816036-31.293007 0-165.506967-64.080887-300.154031-142.846337-300.154031-78.764426 0-142.844289 134.647064-142.844289 300.154031 0 10.111891 0.274401 20.616955 0.81706 31.293007h27.034668a543.119971 543.119971 0 0 1-2.720463-54.372406c0-141.617675 51.706209-252.553602 117.713024-252.553602 66.008863 0 117.715072 110.935927 117.715072 252.553602a543.425088 543.425088 0 0 1-2.719439 54.372406z" fill="#606364" /><path d="M250.495592 380.604796h523.548403v530.835395H250.495592z" fill="#67dde0" /><path d="M774.043995 924.818276H250.495592c-7.390404 0-13.37911-5.991777-13.379109-13.378085V380.604796c0-7.390404 5.988705-13.37911 13.379109-13.379109h523.548403c7.387333 0 13.376038 5.988705 13.376038 13.379109v530.835395c0 7.387333-5.988705 13.378086-13.376038 13.378085z m-510.170317-26.758219h496.790184V393.983906H263.873678v504.076151z" fill="#606364" /><path d="M672.177644 563.768666l21.840498 114.422257-341.71456 65.22559-21.840498-114.421232z" fill="#ffffff" /><path d="M352.338394 748.754028a5.348777 5.348777 0 0 1-5.257651-4.347418L325.239221 629.989473a5.353896 5.353896 0 0 1 4.25322-6.261059l341.702273-65.23071a5.356968 5.356968 0 0 1 6.261059 4.254244l21.841522 114.419185a5.352872 5.352872 0 0 1-4.255268 6.259011l-341.700225 65.23071a5.350825 5.350825 0 0 1-1.003408 0.093174z m-15.581487-115.514743l19.836755 103.903883 331.183899-63.224919-19.831635-103.903883-331.189019 63.224919z" fill="#606364" /></svg>