<?xml version="1.0" standalone="no"?><!DOCTYPE svg PUBLIC "-//W3C//DTD SVG 1.1//EN" "http://www.w3.org/Graphics/SVG/1.1/DTD/svg11.dtd"><svg class="icon" width="200px" height="200.00px" viewBox="0 0 1024 1024" version="1.1" xmlns="http://www.w3.org/2000/svg"><path d="M966.718 520.913l-434.012-434.018c-8.479-8.479-22.204-8.479-30.683 0l-325.31 325.326c-0.132 0.124-0.257 0.251-0.386 0.386l-108.309 108.32c-8.479 8.483-8.479 22.204 0 30.683 8.479 8.483 22.203 8.483 30.683 0l71.456-71.459v359.924c0 47.859 38.927 86.804 86.804 86.804h151.9c11.995 0 21.697-9.707 21.697-21.698v-195.308h195.308c11.995 0 21.698-9.703 21.698-21.697s-9.707-21.698-21.698-21.698h-217.004c-11.996 0-21.698 9.707-21.698 21.698v195.299h-130.205c-23.923 0-43.405-19.5-43.405-43.405v-403.33l303.811-303.814 418.662 418.667c4.238 4.238 9.797 6.358 15.337 6.358 5.554 0 11.106-2.115 15.34-6.358 8.479-8.476 8.479-22.202 0-30.683zM842.868 579.664c-11.995 0-21.697 9.703-21.697 21.697v238.7c0 23.897-19.472 43.405-43.406 43.405h-151.899c-11.995 0-21.698 9.707-21.698 21.698s9.707 21.698 21.698 21.698h151.899c47.87 0 86.804-38.954 86.804-86.804v-238.71c0.001-11.995-9.707-21.695-21.697-21.695z" fill="#ffffff" /></svg>