<?xml version="1.0" standalone="no"?><!DOCTYPE svg PUBLIC "-//W3C//DTD SVG 1.1//EN" "http://www.w3.org/Graphics/SVG/1.1/DTD/svg11.dtd"><svg t="1564649251103" class="icon" viewBox="0 0 1024 1024" version="1.1" xmlns="http://www.w3.org/2000/svg" p-id="4668" xmlns:xlink="http://www.w3.org/1999/xlink" width="200" height="200"><defs><style type="text/css"></style></defs><path d="M277.333333 320v-42.666667h256v42.666667H277.333333z m0 128v-42.666667h256v42.666667H277.333333z m0 128v-42.666667h256v42.666667H277.333333z m0 128v-42.666667h256v42.666667H277.333333z m618.666667 170.666667V384a21.333333 21.333333 0 0 0-21.333333-21.333333h-128a21.333333 21.333333 0 0 0-21.333334 21.333333v490.666667h-42.666666V149.397333A42.730667 42.730667 0 0 0 640.064 106.666667H170.602667A42.666667 42.666667 0 0 0 128 149.397333V874.666667H85.333333v42.666666h853.333334v-42.666666h-42.666667z" fill="#6dd0fe" p-id="4669"></path></svg>