<?xml version="1.0" standalone="no"?><!DOCTYPE svg PUBLIC "-//W3C//DTD SVG 1.1//EN" "http://www.w3.org/Graphics/SVG/1.1/DTD/svg11.dtd"><svg class="icon" width="200px" height="199.03px" viewBox="0 0 1029 1024" version="1.1" xmlns="http://www.w3.org/2000/svg"><path d="M731.442956 950.85195a215.517795 215.517795 0 0 0 219.443127-219.443127A215.517795 215.517795 0 0 0 731.442956 511.999829 215.517795 215.517795 0 0 0 511.999829 731.442956a215.517795 215.517795 0 0 0 219.443127 219.408994z m0 73.147709a296.959901 296.959901 0 0 1-285.252171-234.052189 294.092702 294.092702 0 0 1 533.947555-219.443127 298.9055 298.9055 0 0 1-36.556788 373.043076A318.668694 318.668694 0 0 1 731.442956 1023.999659zM248.695384 219.443127h307.199897c7.304531 0 14.643195 7.304531 21.947726 14.643195a26.862924 26.862924 0 0 1 7.304531 21.947726 26.862924 26.862924 0 0 1-7.304531 21.947726c-7.304531 7.304531-14.643195 7.304531-21.947726 14.643195h-307.199897c-7.304531 0-14.643195-7.304531-21.947726-14.643195a26.862924 26.862924 0 0 1-7.304531-21.981859 26.862924 26.862924 0 0 1 7.304531-21.947726c7.304531-7.304531 14.643195-14.643195 21.947726-14.643195z m0 146.295418h307.199897c7.304531 0 14.643195 7.304531 21.947726 14.643195a26.862924 26.862924 0 0 1 7.304531 21.947726 26.862924 26.862924 0 0 1-7.304531 21.947726c-7.304531 7.304531-14.643195 7.304531-21.947726 14.643195h-307.199897c-7.304531 0-14.643195-7.304531-21.947726-14.643195a26.862924 26.862924 0 0 1-7.304531-21.947726 26.862924 26.862924 0 0 1 7.304531-21.947726c7.304531-7.338664 14.609062-14.677328 21.947726-14.677329z m153.599949 511.999829a36.556788 36.556788 0 0 1 0 73.147709h-255.999915A146.773284 146.773284 0 0 1 0 804.556532V146.295418A146.773284 146.773284 0 0 1 146.295418 0h511.999829a146.773284 146.773284 0 0 1 146.295418 146.295418v182.852206a36.556788 36.556788 0 1 1-73.147709 0V146.295418a69.119977 69.119977 0 0 0-73.147709-73.147709h-511.999829a69.119977 69.119977 0 0 0-73.147709 73.147709v658.261114a69.119977 69.119977 0 0 0 73.147709 73.147709h255.999915z" fill="#0288d1" /><path d="M896.853034 790.425337a22.971726 22.971726 0 0 1-22.220792 23.005859h-222.276193l15.530662 15.530661a23.074126 23.074126 0 1 1-32.631456 32.631456l-54.340249-54.271982a23.039992 23.039992 0 0 1 15.598928-40.004253h276.718842a23.074126 23.074126 0 0 1 16.247461 6.109864 22.835192 22.835192 0 0 1 7.372797 16.042662 4.471465 4.471465 0 0 1 0 0.955733zM573.439809 692.360303a22.971726 22.971726 0 0 1 22.220792-23.039993h222.378593l-15.530662-15.530661a23.074126 23.074126 0 1 1 32.631456-32.631456l54.340249 54.271982a23.039992 23.039992 0 0 1-15.598928 40.004253h-276.855375a23.074126 23.074126 0 0 1-16.247461-6.109864 22.801059 22.801059 0 0 1-7.372797-16.042662z" fill="#0288d1" /></svg>