<?xml version="1.0" standalone="no"?><!DOCTYPE svg PUBLIC "-//W3C//DTD SVG 1.1//EN" "http://www.w3.org/Graphics/SVG/1.1/DTD/svg11.dtd"><svg t="1564653375205" class="icon" viewBox="0 0 1024 1024" version="1.1" xmlns="http://www.w3.org/2000/svg" p-id="11696" xmlns:xlink="http://www.w3.org/1999/xlink" width="200" height="200"><defs><style type="text/css"></style></defs><path d="M409.664 359.018667l358.357333 0 0 102.634667-358.357333 0 0-102.634667Z" p-id="11697" fill="#6dd0fe"></path><path d="M409.664 511.957333l307.157333 0 0 102.634667-307.157333 0 0-102.634667Z" p-id="11698" fill="#6dd0fe"></path><path d="M409.664 666.069333l204.757333 0 0 102.634667-204.757333 0 0-102.634667Z" p-id="11699" fill="#6dd0fe"></path><path d="M921.578667 1024 255.957333 1024 255.957333 153.450667l665.621333 0L921.578667 1024zM358.592 921.344l460.373333 0L818.965333 256.085333l-460.373333 0L358.592 921.344z" p-id="11700" fill="#6dd0fe"></path><path d="M256.085333 919.936 102.421333 919.936 102.421333 0 716.885333 0 716.885333 163.84 614.272 163.84 614.272 102.656 205.056 102.656 205.056 817.301333 256.085333 817.301333Z" p-id="11701" fill="#6dd0fe"></path></svg>