<?xml version="1.0" standalone="no"?><!DOCTYPE svg PUBLIC "-//W3C//DTD SVG 1.1//EN" "http://www.w3.org/Graphics/SVG/1.1/DTD/svg11.dtd"><svg class="icon" width="200px" height="200.00px" viewBox="0 0 1024 1024" version="1.1" xmlns="http://www.w3.org/2000/svg"><path d="M155.864178 538.294044a343.870578 342.482489 90 1 0 684.964978 0 343.870578 342.482489 90 1 0-684.964978 0Z" fill="#ffca6c" /><path d="M766.407111 538.294044c0 148.662044-120.0128 269.175467-268.060444 269.175467-33.678222 0-65.900089-6.235022-95.584711-17.6128a269.232356 269.232356 0 0 1-172.487112-251.562667c0-148.639289 120.0128-269.164089 268.0832-269.164088 39.753956 0 77.494044 8.704 111.422578 24.302933A269.232356 269.232356 0 0 1 766.407111 538.294044z" fill="#f2f2f2" /><path d="M766.407111 538.294044c0 148.662044-120.0128 269.175467-268.060444 269.175467-33.678222 0-65.900089-6.235022-95.584711-17.6128L609.780622 293.432889A269.232356 269.232356 0 0 1 766.407111 538.294044z" fill="#ffffff" /><path d="M873.380978 386.992356l-87.916089-88.246045a2.1504 2.1504 0 0 1-0.227556-0.227555l-24.041244-24.132267-112.173511-112.628622c49.550222-49.7664 123.733333-59.710578 183.148089-29.866667v0.022756c14.859378 7.429689 28.785778 17.408 41.210311 29.843911 61.917867 62.202311 61.917867 163.054933 0 225.234489z" fill="#ffca6c" /><path d="M832.170667 131.879822v0.022756s-134.371556 78.449778-46.921956 166.616178l-24.041244-24.132267-112.173511-112.628622c49.538844-49.7664 123.721956-59.721956 183.136711-29.878045z" fill="#e2ae5a" /><path d="M123.335111 387.003733c-61.940622-62.202311-61.940622-163.043556 0-225.245866 61.952-62.202311 162.383644-62.202311 224.335645 0l-112.162134 112.617244-112.173511 112.628622z" fill="#ffca6c" /><path d="M194.685156 161.757867a157.673244 157.673244 0 0 1 76.4928-42.552889A158.060089 158.060089 0 0 0 123.335111 161.757867c-61.952 62.202311-61.952 163.043556 0 225.245866l41.506133-41.6768c-29.536711-59.608178-19.615289-133.905067 29.843912-183.569066z" fill="#e2ae5a" /><path d="M268.879644 398.199467a15.485156 15.485156 0 0 0-20.992 6.428444 286.230756 286.230756 0 0 0-33.132088 133.677511c0 157.013333 127.214933 284.740267 283.579733 284.740267s283.591111-127.738311 283.591111-284.740267-127.226311-284.740267-283.591111-284.740266c-78.973156 0-152.302933 31.800889-206.461156 89.554488-5.870933 6.257778-5.575111 16.122311 0.659911 22.027378a15.473778 15.473778 0 0 0 21.936356-0.659911c44.680533-47.627378 103.981511-75.411911 168.368356-79.268978v30.731378c0 8.6016 6.940444 15.576178 15.507911 15.576178s15.519289-6.974578 15.519289-15.576178v-30.72c126.919111 7.759644 228.807111 110.068622 236.544 237.511111h-30.583467c-8.578844 0-15.507911 6.974578-15.507911 15.576178 0 8.612978 6.929067 15.576178 15.507911 15.576178h30.583467c-7.725511 127.442489-109.624889 229.751467-236.544 237.522489v-30.72c0-8.612978-6.951822-15.576178-15.519289-15.576178s-15.507911 6.9632-15.507911 15.576178v30.72c-126.930489-7.771022-228.818489-110.08-236.555378-237.522489h30.594844c8.567467 0 15.519289-6.9632 15.519289-15.576178 0-8.6016-6.940444-15.576178-15.519289-15.576178h-30.606222a254.714311 254.714311 0 0 1 29.013333-103.458133 15.610311 15.610311 0 0 0-6.405689-21.083022z"  /><path d="M884.337778 150.744178c-32.893156-33.029689-76.617956-51.211378-123.130311-51.211378S670.958933 117.714489 638.065778 150.744178a15.610311 15.610311 0 0 0 0 22.027378l86.744178 87.108266C661.048889 207.394133 581.893689 178.858667 498.346667 178.858667c-83.535644 0-162.690844 28.535467-226.451911 81.021155l86.755555-87.096889a15.644444 15.644444 0 0 0 0-22.027377 173.613511 173.613511 0 0 0-156.387555-48.014223 15.587556 15.587556 0 0 0 5.893688 30.583467A142.6432 142.6432 0 0 1 325.131378 162.360889L123.926756 364.373333C78.7456 308.007822 82.215822 225.0752 134.303289 172.771556a143.712711 143.712711 0 0 1 25.611378-20.457245c7.281778-4.551111 9.500444-14.153956 4.972089-21.469867a15.485156 15.485156 0 0 0-21.367467-4.983466 176.150756 176.150756 0 0 0-31.163733 24.8832c-67.8912 68.175644-67.8912 179.108978 0 247.273244a15.473778 15.473778 0 0 0 21.936355 0l86.926222-87.278933C106.166044 451.7888 114.153244 660.866844 245.213867 792.462222a366.819556 366.819556 0 0 0 29.7984 26.783289L239.115378 914.773333a15.610311 15.610311 0 0 0 14.506666 21.0944c6.269156 0 12.174222-3.845689 14.518045-10.092089l32.859022-87.472355c58.049422 38.661689 126.099911 59.437511 197.347556 59.437511s139.298133-20.764444 197.347555-59.437511l32.8704 87.472355a15.507911 15.507911 0 0 0 19.979378 9.079467 15.610311 15.610311 0 0 0 9.033956-20.081778l-35.885512-95.527822a362.040889 362.040889 0 0 0 75.639467-83.160178 15.587556 15.587556 0 0 0-4.4032-21.572266 15.473778 15.473778 0 0 0-21.492622 4.414577 330.410667 330.410667 0 0 1-41.915733 51.5072c-61.758578 62.008889-143.860622 96.1536-231.196445 96.1536s-169.437867-34.144711-231.196444-96.1536c-127.476622-128-127.476622-336.270222 0-464.270222 61.758578-62.008889 143.872-96.1536 231.196444-96.1536s169.437867 34.144711 231.185067 96.1536a326.769778 326.769778 0 0 1 90.510222 173.294934 329.216 329.216 0 0 1-21.765689 189.758577c-3.413333 7.8848 0.193422 17.066667 8.055467 20.491378a15.473778 15.473778 0 0 0 20.400355-8.078222 360.391111 360.391111 0 0 0 23.847823-207.724089c-10.888533-60.302222-36.636444-116.053333-75.0592-163.111822l86.869333 87.222044a15.473778 15.473778 0 0 0 21.947733 0c67.902578-68.175644 67.902578-179.108978 0.022756-247.273244z m-11.559822 213.629155L671.550578 162.349511c56.160711-45.351822 138.729244-41.8816 190.828089 10.422045 52.110222 52.303644 55.569067 135.236267 10.399289 191.601777z"  /><path d="M498.346667 553.8816c8.556089 0 15.519289-6.974578 15.519289-15.576178V412.501333c0-8.6016-6.951822-15.576178-15.519289-15.576177-8.567467 0-15.519289 6.974578-15.519289 15.576177v110.227911h-58.857245c-8.567467 0-15.519289 6.9632-15.519289 15.576178 0 8.6016 6.940444 15.576178 15.519289 15.576178H498.346667z"  /></svg>