<?xml version="1.0" standalone="no"?><!DOCTYPE svg PUBLIC "-//W3C//DTD SVG 1.1//EN" "http://www.w3.org/Graphics/SVG/1.1/DTD/svg11.dtd"><svg t="1588321583169" class="icon" viewBox="0 0 1024 1024" version="1.1" xmlns="http://www.w3.org/2000/svg" p-id="1735" xmlns:xlink="http://www.w3.org/1999/xlink" width="48" height="48"><defs><style type="text/css"></style></defs><path d="M840.997067 542.820397l-303.659254 303.213548c-1.337117 1.337117-3.119939 1.782823-4.546197 2.941657l-97.16383 99.704352c-16.089974 16.58025-42.921453 15.867121-59.902838-1.470829-16.936814-17.38252-17.605373-44.837988-1.5154-61.373667l63.646766-65.340447-306.021494-306.021493-0.089141-0.133712 305.843212 305.486647 33.115929-33.071359 0.713129-0.713129 0.089141-0.04457 244.15755-243.934698c19.923042-20.457889 18.273931-55.356641-3.743927-77.820205L406.122072 158.399281 147.122524 417.220547l259.623536-259.89096-32.536512-33.383353c-16.134544-16.535679-15.599697-43.902006 1.203406-61.061672 16.803103-17.204238 43.4563-17.739085 59.590844-1.203406l67.034128 68.772381c2.228528 1.738252 4.76905 2.718804 6.819297 4.813621l328.930763 328.752481c22.15157 22.686417 23.577828 57.852592 3.209081 78.800758z" fill="#e24526" p-id="1736"></path></svg>