<?xml version="1.0" standalone="no"?><!DOCTYPE svg PUBLIC "-//W3C//DTD SVG 1.1//EN" "http://www.w3.org/Graphics/SVG/1.1/DTD/svg11.dtd"><svg t="1573887478674" class="icon" viewBox="0 0 1024 1024" version="1.1" xmlns="http://www.w3.org/2000/svg" p-id="10280" xmlns:xlink="http://www.w3.org/1999/xlink" width="200" height="200"><defs><style type="text/css"></style></defs><path d="M504.740792 942.573639c-243.624567 0-441.794349-198.169782-441.794348-441.794349S261.116225 58.875937 504.740792 58.875937 946.535141 257.045719 946.535141 500.670286 748.365359 942.573639 504.740792 942.573639z m0-790.608046c-192.283551 0-348.813698 156.421143-348.813697 348.813697s156.530147 348.813698 348.813697 348.813698 348.813698-156.421143 348.813698-348.813698-156.530147-348.813698-348.813698-348.813697z m0 0" fill="#4CC0B8" p-id="10281"></path><path d="M952.312368 237.96997a46.572079 46.572079 0 0 1-38.587515-20.438303 471.130126 471.130126 0 0 0-56.79123-68.945207 464.249231 464.249231 0 0 0-68.890706-56.79123 46.490326 46.490326 0 1 1 52.008668-77.066027A562.925356 562.925356 0 0 1 990.681875 165.373119a46.326819 46.326819 0 0 1-12.535492 64.530534 45.1959 45.1959 0 0 1-25.888517 8.066317z m-895.088649 0a46.490326 46.490326 0 0 1-38.478511-72.487847 561.685432 561.685432 0 0 1 68.127675-82.51624 568.675331 568.675331 0 0 1 82.51624-68.127675 46.517577 46.517577 0 1 1 52.049544 77.066026 471.130126 471.130126 0 0 0-68.836203 56.79123 465.448278 465.448278 0 0 0-56.845732 68.836203 46.59933 46.59933 0 0 1-38.533013 20.438303z m40.49509 786.029866a46.422198 46.422198 0 0 1-37.769983-73.414382l58.044779-81.4807a46.491688 46.491688 0 0 1 75.648971 54.066123L135.543294 1004.597075a46.326819 46.326819 0 0 1-37.824485 19.402761z m814.043967 0a46.585704 46.585704 0 0 1-37.93349-19.511766l-58.099281-81.426197a46.491688 46.491688 0 0 1 75.64897-54.066123l58.112907 81.426197a46.572079 46.572079 0 0 1-37.729106 73.577889z m-407.021984-453.457806a46.326819 46.326819 0 0 1-46.435823-46.435824V384.471723a46.544828 46.544828 0 0 1 93.089655 0v57.336251l45.890803-27.469078a46.4767 46.4767 0 1 1 47.852879 79.682129l-116.307568 69.762739a47.1171 47.1171 0 0 1-24.089946 6.812768z m0 0" fill="#5F6379" p-id="10282"></path></svg>