<?xml version="1.0" standalone="no"?><!DOCTYPE svg PUBLIC "-//W3C//DTD SVG 1.1//EN" "http://www.w3.org/Graphics/SVG/1.1/DTD/svg11.dtd"><svg t="1568797182697" class="icon" viewBox="0 0 1024 1024" version="1.1" xmlns="http://www.w3.org/2000/svg" p-id="4509" xmlns:xlink="http://www.w3.org/1999/xlink" width="200" height="200"><defs><style type="text/css"></style></defs><path d="M989.616158 580.151364c-12.113144 50.07335-47.770146 86.242175-77.199969 103.302941a161.565459 161.565459 0 0 1-81.123944 21.624522h-104.710455c16.378336 48.9644 20.558224 103.217637 20.984743 108.805038 0.085304 1.194254 0.085304 2.2179 0.085304 3.11359 0 42.566612-6.184528 79.631128-18.297672 110.127248-11.899885 29.38717-29.38717 52.675117-52.035338 69.352015-21.027395 15.269386-45.680202 24.311592-73.190688 26.657448a179.692523 179.692523 0 0 1-68.029806-8.189168c-32.074241-10.364416-55.660751-32.074241-69.949143-64.404393-10.705631-24.013029-14.928171-50.414565-18.724191-73.873119l-0.170608-1.407513c-0.21326-1.919336-0.597127-3.710717-0.89569-5.587401-1.407513-8.615687-2.601767-16.804855-4.307844-24.098333a345.096654 345.096654 0 0 0-84.877313-161.608111 337.376657 337.376657 0 0 0-70.802181-58.177213 109.103602 109.103602 0 0 0-56.172573-15.35469H108.939392a79.332564 79.332564 0 0 1-79.119305-79.161957V144.504692c0-43.462303 35.273135-78.735437 78.735438-78.735437h169.200151c34.078881 0 62.655665-9.084858 99.03775-20.771483l1.578121-0.511823C439.491742 24.695459 515.412153 0 659.191763 0h1.620773c88.332118 0.127956 153.888114 23.032035 194.578041 68.243066a159.81673 159.81673 0 0 1 40.263409 88.37477c27.297226 20.899439 44.656556 46.575893 51.779427 76.645494 6.824307 29.38717 1.876684 55.959314-4.307844 74.34229 22.605516 21.58187 36.254129 46.661196 40.476669 74.34229 4.606407 30.410816-3.710717 56.7697-12.113145 74.555549 9.383422 18.212368 15.909165 36.595344 19.491926 54.765061a158.02535 158.02535 0 0 1-1.364861 68.882844zM895.867246 431.850652c2.559115-3.625413 13.648613-20.600876 10.662979-38.983852-2.473811-14.586955-13.563309-28.70474-33.055235-41.884181a38.51468 38.51468 0 0 1-11.004194-53.357548c0.511823-0.89569 14.288392-24.695459 8.786294-47.684842-3.497457-14.586955-14.757563-27.681094-33.695014-38.983851a37.874902 37.874902 0 0 1-18.766843-36.851256 77.45588 77.45588 0 0 0-21.667173-54.253237c-25.164631-27.083967-72.465606-41.372359-136.486132-41.500315h-1.535469c-130.728123 0-200.591962 22.47756-256.764536 40.561972-34.121533 11.004194-66.622293 21.496566-104.795758 24.311593v402.036962c9.980548 3.796021 19.57723 8.530383 28.49148 13.776569a403.487127 403.487127 0 0 1 87.734992 71.569915 423.789439 423.789439 0 0 1 104.326587 197.990195c2.559115 11.388062 4.393147 23.245294 6.184528 34.462749 8.189168 52.035338 14.501652 70.460966 35.699654 77.24262 9.980548 3.198894 44.95512 12.198448 71.441959-7.208174 24.780763-17.956457 38.173465-57.835998 38.386725-114.904262-1.194254-17.188722-7.805301-68.157762-22.178996-102.236643-8.530383-20.003749-6.525743-42.566612 5.544749-60.480418a63.977874 63.977874 0 0 1 53.186939-28.662087h125.012767c15.098778 0 29.60043-3.838672 42.012137-11.089499 15.866513-9.084858 34.548052-29.472474 40.51932-54.167933 6.22718-25.292586-0.682431-53.656111-20.344964-84.536098a38.429377 38.429377 0 0 1 2.303204-45.211031zM107.745138 531.442876c0 0.597127 0.511823 1.066298 1.10895 1.066298h110.85233V143.822261H108.768784c-0.597127 0-1.023646 0.426519-1.023646 0.682431v386.980836z" fill="#666666" p-id="4510"></path></svg>