<?xml version="1.0" standalone="no"?><!DOCTYPE svg PUBLIC "-//W3C//DTD SVG 1.1//EN" "http://www.w3.org/Graphics/SVG/1.1/DTD/svg11.dtd"><svg class="icon" width="200px" height="200.00px" viewBox="0 0 1024 1024" version="1.1" xmlns="http://www.w3.org/2000/svg"><path d="M736.757666 542.651921c30.839342 4.874948 146.672334 31.793136 153.030961 143.493021L925.290962 1024H98.669427l35.502335-337.855058C141.060275 574.445057 256.363381 547.526869 287.202723 542.651921l71.110647-9.961849a1335.311711 1335.311711 0 0 1 153.772801-10.597712 1335.311711 1335.311711 0 0 1 153.666824 10.597712z" fill="#c7e2eb" /><path d="M252.33625 1024l34.866473-297.265821V542.651921c22.573127-3.497245 46.629933-6.782536 71.110647-9.961849v200.402734h307.333648V532.690072c24.586692 3.179314 48.643498 6.464604 71.00467 9.961849v184.082258l34.97245 297.265821z" fill="#919da8" /><path d="M697.758085 194.940991v104.281486a190.758816 190.758816 0 0 1-50.233154 129.610018c-8.160238 8.902078-16.956339 18.334042-26.176349 27.342097-34.654518 34.442564-74.183984 66.129723-104.069532 66.129722S448.393922 490.617155 413.209519 455.750683c-9.220009-9.008055-17.910133-18.440019-26.070372-27.342097a191.500656 191.500656 0 0 1-50.339132-129.610018v-45.358207A526.91824 526.91824 0 0 0 564.968754 193.669265a133.531171 133.531171 0 0 0 49.597292-38.575671c-6.25265 28.507845-11.233575 61.46673-45.146253 81.920314 57.015691 1.589657 109.792296-16.532431 128.338292-42.072917z" fill="#fad8cb" /><path d="M750.004806 374.678186C730.293061 455.750683 621.348582 455.750683 621.348582 455.750683c9.220009-9.008055 18.01611-18.440019 26.176349-27.342097a190.758816 190.758816 0 0 0 50.233154-129.610018v-103.857577c-18.545996 25.540486-71.322602 43.662573-128.02036 42.390848 33.912678-20.453584 38.893603-52.98856 45.146253-81.920314A133.531171 133.531171 0 0 1 564.968754 193.669265a526.91824 526.91824 0 0 1-228.698625 59.771096v45.782116a191.500656 191.500656 0 0 0 50.657064 129.610018c8.160238 8.902078 16.850362 18.334042 26.070371 27.342097-5.192879 0-109.262411-2.119542-128.444269-81.496406-11.339552-46.73591 9.220009-128.550246 5.616787-201.356528A175.816042 175.816042 0 0 1 321.221378 84.830763C357.359576 29.722661 409.924228 6.725626 467.99969 1.320793 588.283721-9.806805 610.432939 53.037627 610.432939 53.037627a93.789751 93.789751 0 0 1 71.216624 0c46.947864 20.347607 65.069952 75.349732 62.738455 119.9661-3.391268 73.124213 16.956339 154.938549 5.616788 201.674459z" fill="#f2ce6d" /></svg>