<?xml version="1.0" standalone="no"?><!DOCTYPE svg PUBLIC "-//W3C//DTD SVG 1.1//EN" "http://www.w3.org/Graphics/SVG/1.1/DTD/svg11.dtd"><svg class="icon" width="200px" height="200.00px" viewBox="0 0 1024 1024" version="1.1" xmlns="http://www.w3.org/2000/svg"><path d="M511.162 64.468c-247.244 0-447.696 200.43-447.696 447.697 0 247.242 200.452 447.696 447.696 447.696 247.246 0 447.697-200.454 447.697-447.696 0-247.268-200.451-447.697-447.697-447.697z m222.677 676.27c-13.966 13.966-36.607 13.966-50.573 0L511.483 571.182 340.038 742.625c-14.18 14.18-37.15 14.18-51.331 0-14.179-14.178-14.179-37.175 0-51.33l171.11-171.11-171.55-169.328c-13.965-13.966-13.965-36.608 0-50.598 13.967-13.967 36.607-13.967 50.574 0l171.563 169.34 171.883-171.881c14.155-14.18 37.15-14.18 51.328 0 14.179 14.18 14.179 37.15 0 51.33L562.068 520.597l171.77 169.545c13.97 13.966 13.97 36.632 0.001 50.598z" fill="#ffffff" /></svg>