<?xml version="1.0" standalone="no"?><!DOCTYPE svg PUBLIC "-//W3C//DTD SVG 1.1//EN" "http://www.w3.org/Graphics/SVG/1.1/DTD/svg11.dtd"><svg t="1575514812179" class="icon" viewBox="0 0 1024 1024" version="1.1" xmlns="http://www.w3.org/2000/svg" p-id="3601" xmlns:xlink="http://www.w3.org/1999/xlink" width="200" height="200"><defs><style type="text/css"></style></defs><path d="M512 1024C230.4 1024 0 793.6 0 512S230.4 0 512 0s512 230.4 512 512-230.4 512-512 512z m0-967.111111C261.688889 56.888889 56.888889 261.688889 56.888889 512s204.8 455.111111 455.111111 455.111111 455.111111-204.8 455.111111-455.111111S762.311111 56.888889 512 56.888889z" fill="#FA495B" p-id="3602"></path><path d="M378.311111 384v36.977778c-22.755556 36.977778-48.355556 73.955556-76.8 108.088889h82.488889v31.288889c-11.377778 51.2-22.755556 91.022222-36.977778 125.155555 5.688889 2.844444 11.377778 8.533333 14.222222 11.377778 19.911111 19.911111 39.822222 34.133333 59.733334 42.666667 19.911111 8.533333 48.355556 11.377778 82.488889 14.222222h116.622222c45.511111 0 102.4 0 173.511111-2.844445l-11.377778 42.666667h-284.444444c-42.666667 0-76.8-5.688889-99.555556-17.066667-25.6-11.377778-48.355556-28.444444-71.111111-51.2-5.688889-5.688889-11.377778-5.688889-17.066667-5.688889-14.222222 0-34.133333 28.444444-62.577777 82.488889l-34.133334-28.444444c28.444444-56.888889 56.888889-88.177778 82.488889-96.711111 14.222222-31.288889 28.444444-68.266667 36.977778-110.933334H238.933333v-34.133333c31.288889-36.977778 56.888889-71.111111 79.644445-105.244444H224.711111v-42.666667h153.6z m0-59.733333l-28.444444 28.444444c-22.755556-28.444444-56.888889-59.733333-96.711111-91.022222l31.288888-28.444445c36.977778 31.288889 68.266667 59.733333 93.866667 91.022223z m196.266667 159.288889c2.844444-28.444444 5.688889-59.733333 5.688889-96.711112h-139.377778v-39.822222h190.577778c19.911111-36.977778 36.977778-79.644444 51.2-119.466666l42.666666 14.222222c-14.222222 39.822222-31.288889 73.955556-48.355555 105.244444h82.488889v39.822222H625.777778c0 36.977778-2.844444 68.266667-5.688889 96.711112h162.133333v42.666666h-167.822222v5.688889c-17.066667 79.644444-65.422222 145.066667-150.755556 196.266667l-28.444444-34.133334c73.955556-42.666667 119.466667-96.711111 136.533333-164.977777H426.666667v-42.666667h147.911111z m-11.377778-159.288889l-36.977778 19.911111c-17.066667-34.133333-36.977778-65.422222-56.888889-93.866667l39.822223-19.911111c19.911111 28.444444 36.977778 59.733333 54.044444 93.866667z m224.711111 364.088889l-31.288889 34.133333c-48.355556-51.2-93.866667-93.866667-145.066666-130.844445l25.6-31.288888c56.888889 42.666667 108.088889 82.488889 150.755555 128z" fill="#FA495B" p-id="3603"></path></svg>