<?xml version="1.0" standalone="no"?><!DOCTYPE svg PUBLIC "-//W3C//DTD SVG 1.1//EN" "http://www.w3.org/Graphics/SVG/1.1/DTD/svg11.dtd"><svg class="icon" width="200px" height="200.00px" viewBox="0 0 1024 1024" version="1.1" xmlns="http://www.w3.org/2000/svg"><path d="M963.44064 135.867733H63.489707c-29.04064 0.62464-52.089173 24.635733-51.531094 53.6832v644.865707c-0.580267 29.05088 22.480213 53.08416 51.531094 53.715627h899.91168a52.614827 52.614827 0 0 0 51.536213-53.717334v-644.864c0.597333-29.047467-22.45632-53.075627-51.49696-53.6832m-481.826133 580.811094a37.993813 37.993813 0 0 1-4.758187 14.77632 24.28928 24.28928 0 0 1-12.276053 6.54848 208.551253 208.551253 0 0 1-25.514667 6.120106 827.35104 827.35104 0 0 1-70.71744 9.30304c-12.484267 1.109333-24.439467 2.044587-35.99872 2.75968-11.55584 0.78336-21.684907 1.07008-30.487893 1.07008-8.8064 0-18.824533-0.354987-30.204587-1.07008a1758.706347 1758.706347 0 0 1-71.678293-6.33344 674.377387 674.377387 0 0 1-32.887467-4.4032 358.2208 358.2208 0 0 1-25.193813-4.939093 37.162667 37.162667 0 0 1-12.8512-4.650667 45.994667 45.994667 0 0 1-6.83008-23.082666 188.673707 188.673707 0 0 1 1.57184-49.385814 39.84896 39.84896 0 0 1 13.41952-26.303146 88.97024 88.97024 0 0 1 25.480533-14.242134 319.58528 319.58528 0 0 1 30.240427-9.58976 92.100267 92.100267 0 0 0 27.593386-12.34944 85.84192 85.84192 0 0 0 14.347947-12.12928 39.550293 39.550293 0 0 0 7.371093-10.95168 28.511573 28.511573 0 0 0 2.32448-11.521706c0-4.010667 0-8.587947-0.500053-13.70624a27.163307 27.163307 0 0 0-7.3728-17.215147 184.85248 184.85248 0 0 0-13.666987-12.383573 29.687467 29.687467 0 0 1-6.587733-9.30304 115.319467 115.319467 0 0 1-4.939093-12.095147 291.874133 291.874133 0 0 1-4.256427-14.81728 25.782613 25.782613 0 0 1-6.2976-3.288747 32.498347 32.498347 0 0 1-5.54496-6.621866 50.336427 50.336427 0 0 1-5.58592-12.061014 35.776853 35.776853 0 0 1 0.467627-25.693866 32.72192 32.72192 0 0 1 5.833386-9.878187c-0.360107-11.91424 0.141653-23.796053 1.503574-35.638613 1.536-10.806613 3.754667-21.546667 6.616746-32.063147a103.49056 103.49056 0 0 1 13.919574-30.994773 85.90848 85.90848 0 0 1 18.932053-21.398187 95.402667 95.402667 0 0 1 21.54496-12.885333 91.296427 91.296427 0 0 1 22.080853-6.33344 143.301973 143.301973 0 0 1 21.003947-1.645227 97.983147 97.983147 0 0 1 47.88224 11.521707c11.921067 5.981867 22.439253 14.421333 30.994773 24.692053a99.536213 99.536213 0 0 1 17.066667 33.174187 261.444267 261.444267 0 0 1 8.12544 34.281813 220.945067 220.945067 0 0 1 2.111147 37.28896 20.708693 20.708693 0 0 1 4.758186 6.048427 36.425387 36.425387 0 0 1 3.075414 21.295786 45.54752 45.54752 0 0 1-4.256427 15.885654 41.178453 41.178453 0 0 1-6.2976 9.342293 16.500053 16.500053 0 0 1-8.372907 4.939093c-1.29024 5.5808-2.793813 10.412373-4.155733 14.815574a89.552213 89.552213 0 0 1-5.25824 12.0576 24.323413 24.323413 0 0 1-6.836907 8.767146 212.297387 212.297387 0 0 1-7.584426 6.656 42.09152 42.09152 0 0 0-6.08256 5.725867 31.638187 31.638187 0 0 0-7.371094 16.139947 79.453867 79.453867 0 0 0-0.756053 14.5664 39.441067 39.441067 0 0 0 13.672107 28.235093 62.047573 62.047573 0 0 0 19.68128 11.487573c7.912107 3.508907 16.105813 6.295893 24.444586 8.480427a233.0368 233.0368 0 0 1 25.762134 8.51968 87.944533 87.944533 0 0 1 22.120106 12.63104c6.475093 5.118293 11.267413 11.95008 13.953707 19.754667a142.4384 142.4384 0 0 1 3.401387 18.643626c0.856747 7.405227 1.24928 14.88384 1.24928 22.294187a126.00832 126.00832 0 0 1-1.57184 21.15072m400.626346-40.543573H599.278933c-13.554347-0.00512-24.541867-10.99776-24.541866-24.552107 0-13.554347 10.98752-24.546987 24.541866-24.552107h282.927787c12.939947 0.85504 22.997333 11.598507 22.997333 24.569174 0 12.96896-10.057387 23.712427-22.997333 24.567466m0-147.078826H599.278933c-12.91776-0.856747-22.95808-11.583147-22.95808-24.53504 0-12.946773 10.04032-23.673173 22.95808-24.52992h282.927787c12.91776 0.856747 22.956373 11.583147 22.956373 24.52992 0 12.951893-10.038613 23.678293-22.956373 24.53504m0-147.869014H599.278933c-13.042347-0.703147-23.256747-11.487573-23.256746-24.552106 0-13.059413 10.2144-23.842133 23.256746-24.546987h282.927787c12.832427 0.979627 22.74304 11.680427 22.74304 24.546987 0 12.873387-9.910613 23.57248-22.74304 24.552106" fill="#f06c00" /></svg>