<?xml version="1.0" standalone="no"?><!DOCTYPE svg PUBLIC "-//W3C//DTD SVG 1.1//EN" "http://www.w3.org/Graphics/SVG/1.1/DTD/svg11.dtd"><svg t="1566872862231" class="icon" viewBox="0 0 1024 1024" version="1.1" xmlns="http://www.w3.org/2000/svg" p-id="2580" xmlns:xlink="http://www.w3.org/1999/xlink" width="200" height="200"><defs><style type="text/css"></style></defs><path d="M964.608 424.96L752.64 631.808l50.176 290.816c1.024 8.192-2.048 15.36-8.192 20.48-3.072 3.072-8.192 4.096-12.288 4.096-3.072 0-6.144-1.024-9.216-2.048L512 806.912 250.88 944.128c-7.168 4.096-15.36 3.072-21.504-2.048-6.144-4.096-9.216-12.288-8.192-20.48l50.176-290.816L59.392 424.96c-5.12-5.12-7.168-13.312-5.12-21.504 2.048-7.168 9.216-13.312 16.384-14.336l291.84-40.96L493.568 82.944c3.072-7.168 10.24-11.264 18.432-11.264s15.36 4.096 18.432 11.264L661.504 348.16l291.84 41.984c8.192 1.024 14.336 6.144 16.384 14.336s0 15.36-5.12 20.48z" p-id="2581" fill="#bdbdbd"></path></svg>