<?xml version="1.0" standalone="no"?><!DOCTYPE svg PUBLIC "-//W3C//DTD SVG 1.1//EN" "http://www.w3.org/Graphics/SVG/1.1/DTD/svg11.dtd"><svg t="1575515108323" class="icon" viewBox="0 0 1024 1024" version="1.1" xmlns="http://www.w3.org/2000/svg" p-id="8091" xmlns:xlink="http://www.w3.org/1999/xlink" width="200" height="200"><defs><style type="text/css"></style></defs><path d="M801.109333 502.101333l-15.018666 15.018667 61.44 57.002667v-19.114667l9.557333 2.389333z" fill="#ED4E39" p-id="8092"></path><path d="M736.9728 411.477333l16.1792-16.145066 59.869867 59.835733-16.1792 16.1792zM764.859733 383.761067l15.701334-15.701334 59.869866 59.869867-15.701333 15.701333z" fill="#ED4E39" p-id="8093"></path><path d="M614.4 0H0l1024 1024V409.6z m27.306667 165.205333L682.666667 207.530667l25.941333-25.941334 17.408 17.408-25.941333 25.941334 46.08 44.714666-15.701334 15.701334-44.714666-44.714667-28.330667 28.330667 55.296 55.296-16.384 17.066666-128.341333-129.024 16.384-16.384 55.637333 55.637334 28.330667-28.330667-42.325334-42.325333z m-237.226667 153.941334l-16.725333-16.725334 73.728-73.728c-18.090667-8.874667-36.181333-18.773333-53.930667-29.013333l12.629333-21.162667a597.674667 597.674667 0 0 0 57.685334 34.133334l63.829333-63.829334-22.528-22.528q-22.186667 14.677333-44.032 26.624l-10.922667-19.797333A443.733333 443.733333 0 0 0 556.032 68.266667l14.677333 17.066666c-10.922667 9.898667-21.504 19.114667-32.426666 27.648l20.138666 20.138667 50.176-50.176 16.725334 16.725333-49.834667 48.469334 21.845333 22.528-17.066666 16.384-21.845334-21.845334-58.026666 58.026667 32.426666 12.970667-16.384 16.384-32.085333-13.653334z m131.072-27.306667a416.426667 416.426667 0 0 1-7.850667 65.536l-23.552-4.096a389.461333 389.461333 0 0 0 9.216-68.266667z m-20.138667 134.826667l-30.72-30.72 12.629334-20.138667c8.874667 10.24 17.749333 20.138667 26.965333 29.354667s11.605333 4.778667 17.749333 0L606.208 341.333333l-77.482667-78.506666 17.408-16.384 77.141334 77.141333 15.018666-16.384 16.725334 16.725333-15.701334 15.701334 26.624 26.624-16.384 16.384-26.624-26.624-68.266666 68.266666a24.917333 24.917333 0 0 1-39.253334 2.389334z m79.189334 47.445333a204.8 204.8 0 0 0 70.314666-23.552l12.629334 18.773333a243.712 243.712 0 0 1-77.482667 28.330667z m151.210666 168.618667a38.570667 38.570667 0 0 1-23.552-13.312l-63.488-63.829334a25.941333 25.941333 0 0 1 0-41.642666l42.325334-42.325334 16.725333 16.725334-38.570667 38.570666q-7.850667 7.850667 0 17.408l55.637334 55.637334a17.408 17.408 0 0 0 12.970666 6.144 68.266667 68.266667 0 0 0 28.330667-18.090667l10.922667 21.162667c-19.114667 16.384-33.109333 23.893333-41.301334 23.552z m-10.24-119.125334l21.162667 5.12a365.568 365.568 0 0 1 0 58.026667l-22.186667-3.754667a341.333333 341.333333 0 0 0 1.024-59.392z m81.92 163.84l-23.210666-4.778666a544.085333 544.085333 0 0 0 11.946666-84.309334l21.504 4.437334a554.666667 554.666667 0 0 1-10.24 84.650666z m165.888-170.666666l-98.304-98.304-13.653333 13.653333 76.458667 76.458667-69.973334 69.973333-11.264-11.264a419.84 419.84 0 0 1 0 64.170667l-21.845333-3.754667a265.216 265.216 0 0 0 2.048-29.013333c-44.032-38.229333-106.496-95.232-186.709333-170.666667l13.312-17.749333c34.133333 34.133333 65.536 63.488 94.208 90.794666l17.408-16.384-77.824-75.093333 69.973333-71.68L853.333333 414.72l13.653334-13.653333-97.621334-98.645334 15.701334-14.677333 98.304 98.304 16.042666-16.042667 17.408 17.408-16.042666 16.042667 98.304 98.304z" fill="#ED4E39" p-id="8094"></path><path d="M842.478933 460.663467l15.701334-15.701334 59.835733 59.869867-15.701333 15.701333zM814.011733 488.96l16.145067-16.145067 59.869867 59.835734-16.1792 16.1792z" fill="#ED4E39" p-id="8095"></path></svg>