<?xml version="1.0" standalone="no"?><!DOCTYPE svg PUBLIC "-//W3C//DTD SVG 1.1//EN" "http://www.w3.org/Graphics/SVG/1.1/DTD/svg11.dtd"><svg t="1564653107037" class="icon" viewBox="0 0 1024 1024" version="1.1" xmlns="http://www.w3.org/2000/svg" p-id="22689" xmlns:xlink="http://www.w3.org/1999/xlink" width="200" height="200"><defs><style type="text/css"></style></defs><path d="M950.5 340.1L848.9 161.4c-13.1-23-38.6-37.4-66.4-37.4H241.3c-27.8 0-53.3 14.4-66.4 37.4L73.4 340.1c-13.1 23.1-11.5 51.2 4.2 72.9l341.8 472.1c44.4 61.3 140.7 61.3 185.1 0l46.4-64.1 82.6-114L852 543.3l74.2-102.5 20-27.7c15.8-21.7 17.4-49.8 4.3-73z m-248 226.5L568.7 751.4c-13 17.9-34.2 28.6-56.7 28.6-22.6 0-43.8-10.7-56.7-28.6L321.4 566.6c-11.6-16.1-8-38.5 8-50.1 16.1-11.6 38.5-8 50.1 8L512 707.4l132.4-182.9c11.6-16.1 34.1-19.6 50.1-8 16.1 11.6 19.7 34 8 50.1z" p-id="22690" fill="#6dd0fe"></path></svg>