<?xml version="1.0" standalone="no"?><!DOCTYPE svg PUBLIC "-//W3C//DTD SVG 1.1//EN" "http://www.w3.org/Graphics/SVG/1.1/DTD/svg11.dtd"><svg t="1575358026470" class="icon" viewBox="0 0 1024 1024" version="1.1" xmlns="http://www.w3.org/2000/svg" p-id="33218" xmlns:xlink="http://www.w3.org/1999/xlink" width="200" height="200"><defs><style type="text/css"></style></defs><path d="M917.8 243c5.4 0 10 4.6 10 10v520c0 5.4-4.6 10-10 10H104.2c-5.4 0-10-4.6-10-10V253c0-5.4 4.6-10 10-10h813.6m0-30H104.2c-22 0-40 18-40 40v520c0 22 18 40 40 40h813.6c22 0 40-18 40-40V253c0-22-18-40-40-40z" fill="#EE738E" p-id="33219"></path><path d="M659 460.5c-4.7-4-11.4-6-19.9-6h-33.7v52.8H639c8.5 0 15.2-2.1 19.9-6.4 4.7-4.3 7.1-11.1 7.1-20.4 0.1-9.4-2.3-16-7-20z" fill="#EE738E" p-id="33220"></path><path d="M873.5 268h-725c-16.2 0-29.3 13.1-29.3 29.3v431.3c0 16.2 13.1 29.3 29.3 29.3h724.9c16.2 0 29.3-13.1 29.3-29.3V297.4c0.1-16.2-13-29.4-29.2-29.4zM414.7 602.6h-35.4l-60.6-179.2h40l38.9 136 39.3-136h38.9l-61.1 179.2z m117.5 0H495V423.4h37.2v179.2z m155.4-77.5c-10.5 8.8-25.5 13.1-44.9 13.1h-37.3v64.4h-37.2V423.4H645c17.7 0 31.9 4.6 42.4 13.9s15.8 23.5 15.8 42.9c0.1 21.2-5.2 36.1-15.6 44.9z" fill="#EE738E" p-id="33221"></path></svg>