<?xml version="1.0" standalone="no"?><!DOCTYPE svg PUBLIC "-//W3C//DTD SVG 1.1//EN" "http://www.w3.org/Graphics/SVG/1.1/DTD/svg11.dtd"><svg t="1575358420985" class="icon" viewBox="0 0 1024 1024" version="1.1" xmlns="http://www.w3.org/2000/svg" p-id="2222" xmlns:xlink="http://www.w3.org/1999/xlink" width="200" height="200"><defs><style type="text/css"></style></defs><path d="M773.45064 358.215498h-45.649689v57.115835h45.922912c31.505551-0.555655 36.134988-14.873756 36.552498-30.29191-0.697895-13.202697-5.744841-26.127054-36.825721-26.823925zM895.975185 80.021521H128.016629c-70.683852 0-127.992069 57.304124-127.99207 127.99514v607.966678c0 70.685899 57.308217 127.995139 127.99207 127.99514h767.959579c70.692039 0 127.999233-57.30924 127.999233-127.99514v-607.966678c0-70.691015-57.308217-127.995139-128.000256-127.99514zM510.203074 335.705831c0-15.009855 13.160741-27.233248 29.403681-27.233247 16.234753 0 29.40675 12.224416 29.40675 27.233247v191.764512c0 15.009855-13.170974 27.233248-29.40675 27.233248-16.242939 0-29.40368-12.224416-29.403681-27.233248V335.705831z m-344.044753-14.868639c6.429433-8.751315 17.21815-14.030551 28.694529-14.030551 14.144138 0 27.176966 8.196683 32.352849 20.425192l55.728232 132.149762 54.753021-132.013662c5.175883-12.365632 18.065448-20.561291 32.33443-20.561292 12.480242 0 23.393803 5.13802 29.979801 14.166651 6.294356 8.897647 7.55814 20.010753 3.220345 29.882588L319.907007 538.865881c-5.328355 12.087293-17.927301 19.87056-32.070416 19.87056h-10.640338c-14.144138 0-26.742061-7.919367-32.070416-20.010753l-82.332147-188.010001c-4.339842-9.871835-3.075035-21.122063 3.364631-29.878495z m377.838417 431.145508h-351.9764c-17.671475 0-32.001855-14.32731-32.001855-31.999808 0-17.672498 14.33038-31.995715 32.001855-31.995715h351.9764c17.670451 0 31.993668 14.322194 31.993669 31.995715s-14.323217 31.999808-31.993669 31.999808z m234.07413-282.734386h-50.268894v62.532195c0 15.700587-11.760858 28.343535-26.041096 28.343535-14.425547 0-26.048259-12.784164-26.048259-28.343535V343.346859c0-21.394263 16.096607-38.907125 35.843346-38.907125h68.89716c49.288566 2.503007 78.966493 30.988782 83.871199 80.181157-0.419556 32.376385-12.323677 83.517135-86.253456 84.627423z" fill="#FF5E00" p-id="2223"></path></svg>