<?xml version="1.0" standalone="no"?><!DOCTYPE svg PUBLIC "-//W3C//DTD SVG 1.1//EN" "http://www.w3.org/Graphics/SVG/1.1/DTD/svg11.dtd"><svg t="1574579363254" class="icon" viewBox="0 0 1024 1024" version="1.1" xmlns="http://www.w3.org/2000/svg" p-id="3762" xmlns:xlink="http://www.w3.org/1999/xlink" width="200" height="200"><defs><style type="text/css"></style></defs><path d="M512 16C240 16 16 240 16 512s224 496 496 496 496-224 496-496S784 16 512 16z m0 960C256 976 48 768 48 512S256 48 512 48 976 256 976 512 768 976 512 976z" fill="#FFFFFF" p-id="3763"></path><path d="M512 48C256 48 48 256 48 512S256 976 512 976 976 768 976 512 768 48 512 48zM611.2 224c41.6 0 70.4 32 92.8 96h-288c19.2-9.6 134.4-96 195.2-96zM736 608c19.2 0 32 12.8 32 32v64c0 19.2-12.8 32-32 32H288c-19.2 0-32-12.8-32-32v-316.8c0-19.2 12.8-32 32-32h448c19.2 0 32 12.8 32 32V448c0 19.2-12.8 32-32 32h-128v128h128z" fill="#54A0FF" p-id="3764"></path></svg>