<?xml version="1.0" standalone="no"?><!DOCTYPE svg PUBLIC "-//W3C//DTD SVG 1.1//EN" "http://www.w3.org/Graphics/SVG/1.1/DTD/svg11.dtd"><svg t="1600395971041" class="icon" viewBox="0 0 1024 1024" version="1.1" xmlns="http://www.w3.org/2000/svg" p-id="3020" xmlns:xlink="http://www.w3.org/1999/xlink" width="200" height="200"><defs><style type="text/css"></style></defs><path d="M847.98992 767.975681 655.99568 767.975681C622.076698 767.975681 591.9976 739.33654 591.9976 703.977601L591.9976 671.978561 304.00624 671.978561 304.00624 959.969921C304.00624 995.296861 275.367099 1023.968001 240.00816 1023.968001L176.01008 1023.968001C140.65114 1023.968001 112.012 995.296861 112.012 959.969921L112.012 63.9968C112.012 28.637861 140.65114-0.00128 176.01008-0.00128L240.00816-0.00128C275.367099-0.00128 304.00624 28.637861 304.00624 63.9968L304.00624 95.99584 591.9976 95.99584C627.356539 95.99584 655.99568 124.66698 655.99568 159.99392L655.99568 223.992 847.98992 223.992C883.34886 223.992 911.988 252.66314 911.988 287.99008L911.988 703.977601C911.988 739.33654 883.34886 767.975681 847.98992 767.975681ZM240.00816 671.978561 240.00816 607.980481 240.00816 159.99392 240.00816 95.99584C240.00816 78.33237 225.67259 63.9968 208.00912 63.9968 190.34565 63.9968 176.01008 78.33237 176.01008 95.99584L176.01008 927.970881C176.01008 945.634351 190.34565 959.969921 208.00912 959.969921 225.67259 959.969921 240.00816 945.634351 240.00816 927.970881L240.00816 671.978561ZM591.9976 191.99296C591.9976 174.32949 577.66203 159.99392 559.99856 159.99392L304.00624 159.99392C304.00624 177.017409 304.00624 174.32949 304.00624 191.99296L304.00624 575.981441C304.00624 593.644911 304.00624 589.069048 304.00624 607.980481L559.99856 607.980481C577.66203 607.980481 591.9976 593.644911 591.9976 575.981441L591.9976 191.99296ZM847.98992 319.98912C847.98992 302.293651 833.65435 287.99008 815.99088 287.99008L655.99568 287.99008C655.99568 305.01357 655.99568 302.293651 655.99568 319.98912L655.99568 607.980481 655.99568 698.505765C655.99568 697.99378 655.99568 699.273742 655.99568 703.977601L815.99088 703.977601C833.65435 703.977601 847.98992 721.641071 847.98992 703.977601L847.98992 319.98912Z" p-id="3021" fill="#6dd0fe"></path></svg>