<?xml version="1.0" standalone="no"?><!DOCTYPE svg PUBLIC "-//W3C//DTD SVG 1.1//EN" "http://www.w3.org/Graphics/SVG/1.1/DTD/svg11.dtd"><svg t="1573887335577" class="icon" viewBox="0 0 1024 1024" version="1.1" xmlns="http://www.w3.org/2000/svg" p-id="4825" xmlns:xlink="http://www.w3.org/1999/xlink" width="200" height="200"><defs><style type="text/css"></style></defs><path d="M711.3 589.4c0 28.7-5.2 55.6-15.5 80.5-10.3 25-24.6 46.9-42.8 65.7-18.1 18.8-39.3 33.4-63.6 44.2-24.2 10.6-50.2 16-78 16-27.8 0-53.8-5.4-78-16-24.3-10.6-45.4-25.4-63.6-44.2-18.2-18.8-32.4-40.6-42.8-65.6-10.3-25-15.5-51.9-15.5-80.5 0-28.7 5.2-55.6 15.5-80.5 10.2-25 24.5-46.9 42.8-65.7 18.2-18.8 39.3-33.5 63.6-44.1 24.2-10.6 50.2-16 78-16 27.8 0 53.8 5.4 78 16 24.2 10.6 45.4 25.3 63.6 44.1 18.2 18.7 32.5 40.6 42.8 65.7 10.3 24.9 15.5 51.6 15.5 80.4z m77-525.4c30.6 0 52.9 9.2 66.9 27.5C869.1 110 876 132 876 157.7v708.6c0 25.7-9 47.8-26.7 66.2C831.5 950.8 809 960 782 960H241c-27.8 0-50.2-9.2-67.4-27.5-17.1-18.4-25.6-40.5-25.6-66.2V157.9c0-25.8 7.8-47.7 23.6-65.7 15.6-18.1 37.1-27 64.1-27L788.3 64zM219.7 193.2c0 8.1 2.7 15.6 8.1 22.7 5.3 7 14.1 10.5 26.2 10.5h81.3c12.2 0 21.1-4.2 26.8-12.7 5.7-8.5 8.6-16.8 8.6-24.9v-16.5c0-8.1-3.2-15.5-9.7-22-6.4-6.6-15.3-10-26.7-10h-78c-12 0-21.2 3.5-27.3 10.5-6.1 7.1-9.1 14.6-9.1 22.7l-0.2 19.7z m291.7 672c37.1 0 71.8-7.2 104.2-21.5 32.4-14.3 60.8-34.1 85-59 24.2-25 43.3-54.3 57.2-87.7 13.9-33.4 20.8-69.3 20.8-107.6 0-37.5-6.9-73-20.8-106.6-13.9-33.4-33-62.7-57.2-87.7-24.2-25-52.6-44.7-85-59-32.4-14.3-67.2-21.5-104.2-21.5-36.3 0-70.7 7.2-103.1 21.5-32.5 14.3-60.8 34.1-85 59-24.1 25-43.2 54.3-57.2 87.7-13.8 33.4-20.8 69.1-20.8 106.6 0 38.3 7 74.1 20.8 107.6 13.9 33.5 33 62.7 57.2 87.7 24.2 25.1 52.6 44.7 85 59s66.7 21.5 103.1 21.5z" fill="#07C1AC" p-id="4826"></path></svg>