<?xml version="1.0" standalone="no"?><!DOCTYPE svg PUBLIC "-//W3C//DTD SVG 1.1//EN" "http://www.w3.org/Graphics/SVG/1.1/DTD/svg11.dtd"><svg class="icon" width="200px" height="200.00px" viewBox="0 0 1024 1024" version="1.1" xmlns="http://www.w3.org/2000/svg"><path d="M374.784 544.768c0-77.824 62.464-140.288 140.288-140.288S655.36 466.944 655.36 544.768s-62.464 140.288-140.288 140.288c-76.8 0-140.288-62.464-140.288-140.288z" fill="#bce2ec" /><path d="M230.4 282.624H798.72v-65.536c-10.24-43.008-39.936-64.512-84.992-68.608H280.576c-43.008 8.192-59.392 32.768-58.368 71.68l8.192 62.464z" fill="#de96ba" /><path d="M308.224 906.24c-8.192 0-15.36-7.168-15.36-15.36s7.168-15.36 15.36-15.36h31.744c8.192 0 15.36 7.168 15.36 15.36s-7.168 15.36-15.36 15.36h-31.744z m373.76 0c-8.192 0-15.36-7.168-15.36-15.36s7.168-15.36 15.36-15.36h31.744c8.192 0 15.36 7.168 15.36 15.36s-7.168 15.36-15.36 15.36h-31.744z m-385.024-40.96c-47.104 0-86.016-38.912-86.016-86.016V210.944c0-47.104 38.912-86.016 86.016-86.016h436.224c47.104 0 86.016 38.912 86.016 86.016v568.32c0 47.104-38.912 86.016-86.016 86.016H296.96z m436.224-33.792c26.624 0 49.152-20.48 52.224-47.104v-2.048h-76.8c-8.192 0-15.36-7.168-15.36-15.36v-62.464c0-8.192 7.168-15.36 15.36-15.36h76.8V304.128H244.736v475.136c0 28.672 23.552 52.224 52.224 52.224h436.224z m-218.112-65.536c-120.832 0-219.136-98.304-219.136-219.136 0-120.832 98.304-219.136 219.136-219.136 120.832 0 219.136 98.304 219.136 219.136 1.024 120.832-97.28 219.136-219.136 219.136z m270.336-14.336v-31.744h-61.44v31.744h61.44z m-270.336-19.456c102.4 0 186.368-82.944 186.368-186.368 0-102.4-82.944-186.368-186.368-186.368-102.4 0-186.368 82.944-186.368 186.368s83.968 186.368 186.368 186.368z m0-26.624c-88.064 0-158.72-70.656-158.72-158.72s71.68-158.72 158.72-158.72c88.064 0 158.72 71.68 158.72 158.72s-70.656 158.72-158.72 158.72z m0-22.528c74.752 0 136.192-61.44 136.192-136.192 0-74.752-61.44-136.192-136.192-136.192C440.32 410.624 378.88 471.04 378.88 546.816c0 74.752 61.44 136.192 136.192 136.192z m-96.256-129.024c-6.144 0-11.264-5.12-11.264-11.264 1.024-26.624 9.216-53.248 25.6-71.68 17.408-19.456 41.984-29.696 72.704-26.624 6.144 0 11.264 6.144 10.24 12.288-1.024 6.144-6.144 11.264-12.288 10.24-23.552-2.048-41.984 6.144-53.248 19.456-12.288 13.312-19.456 33.792-20.48 57.344 0 5.12-5.12 10.24-11.264 10.24z m366.592-283.648v-60.416c0-28.672-23.552-52.224-52.224-52.224H296.96c-28.672 0-52.224 23.552-52.224 52.224v60.416h540.672zM296.96 231.424c-8.192 0-15.36-7.168-15.36-15.36s7.168-15.36 15.36-15.36h31.744c8.192 0 15.36 7.168 15.36 15.36s-7.168 15.36-15.36 15.36H296.96z m309.248 0c-8.192 0-15.36-7.168-15.36-15.36s7.168-15.36 15.36-15.36h31.744c8.192 0 15.36 7.168 15.36 15.36s-7.168 15.36-15.36 15.36h-31.744z m89.088 0c-8.192 0-15.36-7.168-15.36-15.36s7.168-15.36 15.36-15.36H727.04c8.192 0 15.36 7.168 15.36 15.36s-7.168 15.36-15.36 15.36h-31.744z" fill="#55545f" /></svg>