<?xml version="1.0" standalone="no"?><!DOCTYPE svg PUBLIC "-//W3C//DTD SVG 1.1//EN" "http://www.w3.org/Graphics/SVG/1.1/DTD/svg11.dtd"><svg t="1604890846129" class="icon" viewBox="0 0 1024 1024" version="1.1" xmlns="http://www.w3.org/2000/svg" p-id="6002" xmlns:xlink="http://www.w3.org/1999/xlink" width="200" height="200"><defs><style type="text/css"></style></defs><path d="M904 64c30.9 0 56 25.1 56 56v784c0 30.9-25.1 56-56 56H120c-30.9 0-56-25.1-56-56V120c0-30.9 25.1-56 56-56h784m0-64H120C53.7 0 0 53.7 0 120v784c0 66.3 53.7 120 120 120h784c66.3 0 120-53.7 120-120V120c0-66.3-53.7-120-120-120z" fill="#707070" p-id="6003"></path><path d="M736 480H288c-17.7 0-32 14.3-32 32s14.3 32 32 32h448c17.7 0 32-14.3 32-32s-14.3-32-32-32z" fill="#707070" p-id="6004"></path><path d="M480 288v448c0 17.7 14.3 32 32 32s32-14.3 32-32V288c0-17.7-14.3-32-32-32s-32 14.3-32 32z" fill="#707070" p-id="6005"></path></svg>