<?xml version="1.0" standalone="no"?><!DOCTYPE svg PUBLIC "-//W3C//DTD SVG 1.1//EN" "http://www.w3.org/Graphics/SVG/1.1/DTD/svg11.dtd"><svg t="1590589227875" class="icon" viewBox="0 0 1024 1024" version="1.1" xmlns="http://www.w3.org/2000/svg" p-id="12774" xmlns:xlink="http://www.w3.org/1999/xlink" width="200" height="200"><defs><style type="text/css"></style></defs><path d="M130.688 628.288C114.965333 651.584 106.666667 676.693333 106.666667 702.570667 106.666667 825.152 289.664 917.333333 512 917.333333a21.333333 21.333333 0 0 0 0-42.666666c-201.813333 0-362.666667-81.024-362.666667-172.096 0-17.024 5.568-33.92 16.704-50.389334a21.333333 21.333333 0 0 0-35.349333-23.893333z m689.066667 215.338667C881.664 805.738667 917.333333 756.565333 917.333333 702.570667c0-26.005333-8.362667-51.178667-24.213333-74.538667a21.333333 21.333333 0 1 0-35.306667 23.936c11.221333 16.554667 16.853333 33.493333 16.853334 50.602667 0 36.906667-26.773333 73.813333-77.184 104.661333a21.333333 21.333333 0 1 0 22.272 36.394667z" fill="#007AFF" p-id="12775"></path><path d="M130.688 436.288C114.965333 459.584 106.666667 484.693333 106.666667 510.570667c0 100.437333 123.178667 181.802667 295.168 206.933333a21.333333 21.333333 0 1 0 6.186666-42.24C254.4 652.864 149.333333 583.424 149.333333 510.570667c0-17.024 5.568-33.92 16.704-50.389334a21.333333 21.333333 0 0 0-35.349333-23.893333z m689.066667 215.338667C881.664 613.738667 917.333333 564.565333 917.333333 510.570667c0-26.005333-8.362667-51.178667-24.213333-74.538667a21.333333 21.333333 0 1 0-35.306667 23.936c11.221333 16.554667 16.853333 33.493333 16.853334 50.602667 0 36.906667-26.773333 73.813333-77.184 104.661333a21.333333 21.333333 0 1 0 22.272 36.394667zM512 512c222.357333 0 405.333333-91.498667 405.333333-213.333333S734.357333 85.333333 512 85.333333 106.666667 176.832 106.666667 298.666667s182.976 213.333333 405.333333 213.333333z m0-42.666667c-201.813333 0-362.666667-80.426667-362.666667-170.666666s160.853333-170.666667 362.666667-170.666667 362.666667 80.426667 362.666667 170.666667-160.853333 170.666667-362.666667 170.666666z m170.666667 341.333334v-42.666667h85.333333a21.333333 21.333333 0 0 0 0-42.666667h-55.168l48.917333-48.917333a21.333333 21.333333 0 0 0-30.165333-30.165333L661.333333 716.501333l-70.250666-70.250666a21.333333 21.333333 0 0 0-30.165334 30.165333L609.834667 725.333333H554.666667a21.333333 21.333333 0 0 0 0 42.666667h85.333333v42.666667h-64a21.333333 21.333333 0 0 0 0 42.666666h64v85.333334a21.333333 21.333333 0 0 0 42.666667 0v-85.333334h64a21.333333 21.333333 0 0 0 0-42.666666h-64z" fill="#007AFF" p-id="12776"></path></svg>